<svg width="353" height="421" viewBox="0 0 353 421" fill="none" xmlns="http://www.w3.org/2000/svg">
<path d="M137.333 345.72C130.329 338.488 120.179 334.34 109.486 334.34L109.073 334.341C102.03 334.344 95.1123 332.473 89.0279 328.921L88.3948 328.552L88.9047 328.026C91.6655 325.166 93.9707 321.898 95.7396 318.337C94.4833 319.51 92.9849 320.392 91.3504 320.92C89.7159 321.449 87.9853 321.611 86.2811 321.396C84.4819 321.182 82.7547 320.562 81.2289 319.583C79.7031 318.605 78.4185 317.293 77.4713 315.746C73.7339 309.675 69.2789 301.06 69.2789 294.497C69.2847 288.95 70.4448 283.465 72.6852 278.391C74.9256 273.318 78.1971 268.767 82.2913 265.03C84.8833 262.69 86.9536 259.829 88.3673 256.635C89.781 253.44 90.5063 249.982 90.4959 246.488L90.4939 245.991C90.4932 241.39 91.0547 236.807 92.1659 232.343L92.2787 231.892L92.7419 231.908C95.729 232.01 98.7178 231.76 101.646 231.162C98.8993 230.824 96.212 230.109 93.6606 229.035L93.1623 228.833L93.3314 228.322C104.989 221.095 131.305 224.837 146.579 189.848C158.964 161.477 202.664 215.034 202.664 245.991C202.664 249.15 199.541 253.324 201.879 255.412C227.146 277.981 209.712 292.474 204.215 307.057C202.911 310.517 205.739 314.316 205.739 318.059C205.739 318.694 205.723 319.35 205.691 320.008L205.642 321.019L204.8 320.458C203.133 319.365 201.588 318.096 200.191 316.673C201.64 320.012 202.323 323.634 202.19 327.271C202.056 330.909 201.11 334.47 199.42 337.694C196.772 342.697 194.21 346.28 191.806 348.34C184.104 354.939 174.175 358.343 164.05 357.856C153.925 357.369 144.367 353.028 137.333 345.72H137.333Z" fill="#E6E6E6"/>
<path d="M179.635 421C179.807 421 179.974 420.937 180.104 420.824C180.234 420.711 180.318 420.555 180.343 420.384C180.373 420.171 183.351 398.665 180.677 370.084C178.206 343.688 170.274 305.669 146.511 274.445C146.454 274.37 146.383 274.307 146.302 274.26C146.22 274.212 146.131 274.181 146.037 274.169C145.944 274.156 145.849 274.162 145.759 274.186C145.668 274.21 145.582 274.252 145.507 274.309C145.433 274.366 145.37 274.437 145.323 274.519C145.275 274.6 145.245 274.69 145.232 274.783C145.219 274.877 145.225 274.971 145.25 275.062C145.274 275.153 145.315 275.239 145.373 275.314C168.93 306.268 176.799 344.008 179.251 370.218C181.911 398.633 178.956 419.97 178.926 420.182C178.911 420.284 178.919 420.388 178.948 420.486C178.977 420.585 179.027 420.676 179.094 420.753C179.161 420.831 179.245 420.893 179.338 420.935C179.431 420.978 179.533 421 179.635 421V421Z" fill="#3F3D56"/>
<path d="M160.243 318.488C160.394 318.489 160.542 318.441 160.664 318.352C160.786 318.263 160.878 318.138 160.924 317.994C160.971 317.85 160.971 317.695 160.924 317.551C160.878 317.407 160.787 317.281 160.665 317.192C153.894 312.603 146.579 308.875 138.889 306.094C126.875 301.69 108.606 297.698 89.7985 303.691C89.7087 303.719 89.6255 303.765 89.5534 303.826C89.4814 303.886 89.422 303.96 89.3787 304.044C89.3354 304.128 89.3089 304.219 89.3009 304.313C89.2929 304.407 89.3035 304.501 89.332 304.591C89.3606 304.681 89.4065 304.764 89.4673 304.836C89.528 304.908 89.6023 304.968 89.6859 305.011C89.7696 305.054 89.8609 305.08 89.9547 305.088C90.0485 305.096 90.1429 305.085 90.2325 305.056C108.655 299.186 126.593 303.113 138.397 307.44C145.963 310.173 153.16 313.839 159.823 318.351C159.945 318.441 160.092 318.488 160.243 318.488V318.488Z" fill="#3F3D56"/>
<path d="M192.998 236.809C193.009 236.658 192.972 236.507 192.892 236.379C192.812 236.25 192.694 236.15 192.554 236.093C192.414 236.036 192.26 236.025 192.113 236.061C191.966 236.097 191.834 236.179 191.737 236.295C186.678 242.726 182.437 249.762 179.113 257.241C173.861 268.921 168.568 286.878 173.184 306.091C173.206 306.183 173.245 306.269 173.3 306.345C173.356 306.421 173.425 306.486 173.506 306.535C173.586 306.584 173.675 306.617 173.768 306.632C173.861 306.647 173.956 306.643 174.047 306.621C174.138 306.599 174.225 306.559 174.301 306.504C174.377 306.448 174.441 306.378 174.49 306.298C174.539 306.218 174.572 306.129 174.587 306.035C174.601 305.942 174.597 305.847 174.575 305.756C170.054 286.936 175.257 269.306 180.418 257.829C183.686 250.47 187.856 243.547 192.831 237.218C192.929 237.103 192.987 236.959 192.998 236.809V236.809Z" fill="#3F3D56"/>
<path d="M331.038 420.241H274.067L273.822 419.796C273.094 418.474 272.39 417.072 271.733 415.632C265.865 403.053 263.384 388.666 261.196 375.973L259.548 366.406C259.348 365.247 259.498 364.055 259.979 362.982C260.46 361.91 261.25 361.005 262.248 360.384C263.245 359.764 264.405 359.455 265.578 359.498C266.752 359.541 267.886 359.934 268.835 360.626C277.494 366.934 286.155 373.236 294.82 379.532C298.101 381.922 301.848 384.688 305.436 387.678C305.782 385.994 306.144 384.306 306.507 382.64C306.756 381.491 307.343 380.442 308.192 379.628C309.04 378.814 310.112 378.272 311.27 378.072C312.428 377.871 313.619 378.021 314.691 378.503C315.764 378.984 316.668 379.775 317.289 380.774L323.954 391.496C328.816 399.327 333.107 407.043 332.233 415.365C332.237 415.466 332.23 415.568 332.21 415.667C332.035 417.034 331.711 418.378 331.243 419.674L331.038 420.241Z" fill="#F0F0F0"/>
<path d="M304.496 195.989L293.501 155.243C293.03 153.518 291.9 152.048 290.356 151.149C288.812 150.251 286.977 149.996 285.247 150.44C284.352 150.67 283.513 151.08 282.782 151.645C282.05 152.21 281.441 152.918 280.992 153.726C280.542 154.535 280.262 155.426 280.168 156.346C280.074 157.267 280.169 158.197 280.445 159.079L293.162 201.054L299.816 226.885C298.847 227.626 298.129 228.648 297.76 229.811C297.391 230.975 297.389 232.224 297.754 233.389C298.118 234.553 298.832 235.578 299.799 236.322C300.765 237.066 301.937 237.495 303.155 237.549C304.373 237.604 305.578 237.282 306.607 236.626C307.635 235.971 308.438 235.014 308.905 233.887C309.371 232.759 309.48 231.515 309.216 230.323C308.952 229.131 308.328 228.05 307.429 227.225L304.496 195.989Z" fill="#B0B8B4"/>
<path d="M211.974 187.213L245.382 161.472C246.794 160.377 247.72 158.77 247.959 156.998C248.198 155.226 247.732 153.431 246.661 152V152C246.107 151.259 245.408 150.64 244.607 150.179C243.806 149.718 242.92 149.425 242.002 149.318C241.084 149.211 240.154 149.293 239.269 149.557C238.384 149.822 237.562 150.264 236.853 150.858L202.969 178.662L181.669 194.688C180.615 194.075 179.398 193.801 178.183 193.904C176.968 194.007 175.814 194.482 174.879 195.265C173.943 196.047 173.27 197.099 172.952 198.278C172.635 199.456 172.687 200.704 173.102 201.852C173.517 203 174.275 203.992 175.273 204.693C176.271 205.395 177.46 205.772 178.679 205.773C179.899 205.774 181.089 205.399 182.088 204.699C183.087 204 183.847 203.009 184.264 201.862L211.974 187.213Z" fill="#B0B8B4"/>
<path d="M239.203 193.131L237.73 226.059L283.967 215.998C280.032 202.767 277.356 200.51 280.313 191.302L239.203 193.131Z" fill="#B0B8B4"/>
<path d="M267.633 132.764H252.226L245.61 144.1L242.458 143.925C240.916 143.84 239.373 144.071 237.923 144.603C236.473 145.135 235.147 145.958 234.025 147.02C232.903 148.083 232.01 149.364 231.399 150.784C230.789 152.204 230.474 153.734 230.474 155.28V155.28L234.358 161.308C234.358 161.308 227.411 173.429 237.418 179.393C237.418 179.393 235.633 190.629 237.418 190.508C239.203 190.387 243.314 188.1 239.203 190.387C235.092 192.674 235.399 192.981 235.93 193.513L236.462 194.046L279.689 201.313C279.689 201.313 280.954 192.923 281.09 191.426C281.226 189.93 280.313 193.588 281.226 189.93C282.14 186.271 283.51 187.643 282.14 186.271C280.77 184.899 291.019 167.901 286.808 161.308L293.559 154.715C293.559 148.39 283.414 143.263 277.097 143.263H276.288L267.633 132.764Z" fill="#E6E6E6"/>
<path d="M230.513 407.547H224.277L221.311 383.465L230.514 383.466L230.513 407.547Z" fill="#B0B8B4"/>
<path d="M211.692 416.759C211.695 417.458 211.974 418.128 212.467 418.623C212.96 419.118 213.629 419.398 214.328 419.403H226.066L226.43 418.648L228.09 415.218L228.733 418.648L228.875 419.403H233.303L233.24 418.643L232.059 404.468L230.515 404.373L223.842 403.977L222.202 403.876V408.109C220.958 409.434 211.197 414.442 211.692 416.759Z" fill="#2F2E41"/>
<path d="M323.186 391.194L317.942 394.571L302.434 375.926L310.175 370.941L323.186 391.194Z" fill="#B0B8B4"/>
<path d="M312.336 409.136C312.716 409.723 313.312 410.135 313.995 410.284C314.677 410.433 315.391 410.307 315.981 409.932L325.853 403.573L325.751 402.742L325.294 398.957L327.688 401.494L328.216 402.051L331.939 399.653L331.475 399.048L322.823 387.766L321.472 388.523L315.647 391.805L314.214 392.609L316.501 396.168C316.171 397.956 310.667 407.456 312.336 409.136Z" fill="#2F2E41"/>
<path d="M352.275 420.681L159.189 420.87C158.996 420.869 158.811 420.791 158.676 420.655C158.54 420.518 158.463 420.333 158.463 420.14C158.463 419.947 158.54 419.762 158.676 419.625C158.811 419.488 158.996 419.411 159.189 419.41L352.275 419.221C352.468 419.222 352.652 419.3 352.788 419.437C352.924 419.573 353 419.758 353 419.951C353 420.144 352.924 420.329 352.788 420.466C352.652 420.603 352.468 420.68 352.275 420.681V420.681Z" fill="#CACACA"/>
<path d="M283.242 212.278C283.242 212.278 253.687 227.931 238.055 217.252C238.055 217.252 234.635 233.834 233.265 235.206C231.894 236.578 229.711 237.176 231.26 238.706C232.808 240.237 233.67 242.304 230.727 244.929C227.783 247.554 224.849 246.721 227.686 249.424C230.524 252.128 219.105 318.442 219.105 318.442C219.105 318.442 220.932 380.111 219.105 381.976C217.278 383.841 214.835 384.259 217.198 386.565C219.561 388.872 219.561 387.083 219.561 390.264V393.445L220.643 396.607H235.474C235.474 396.607 239.053 392.444 235.474 388.828C231.894 385.213 236.563 384.224 237.655 380.831C238.746 377.438 240.573 381.097 238.746 377.438C236.919 373.779 236.041 374.476 236.023 372.07C236.005 369.663 262.955 275.452 262.955 275.452L266.219 327.597L305.482 384.704L317.038 376.026C317.038 376.026 308.624 364.167 310.592 362.536C312.559 360.906 304.793 358.861 307.242 357.022C309.691 355.183 303.795 353.33 306.017 350.892C308.239 348.454 302.956 342.309 299.895 342.309C296.833 342.309 292.537 332.067 292.537 332.067L298.951 251.152L283.242 212.278Z" fill="#243441"/>
<path d="M251.917 99.4802C251.708 99.7551 250.041 99.6071 248.037 99.3141C244.075 98.7349 243.535 99.4232 240.573 102.121C236.283 106.028 238.722 129.862 236.614 135.026L235.933 135.529C237.284 135.27 238.611 134.899 239.899 134.417C240.627 132.117 241.357 129.81 242.092 127.512C242.786 129.3 243.222 131.178 243.387 133.089C244.407 132.686 245.421 131.702 249.683 130.381C251.829 128.924 267.354 127.458 269.35 126.817C274.416 109.561 266.253 102.583 251.917 99.4802Z" fill="#2F2E41"/>
<path d="M257.159 126.089C265.352 126.089 271.995 119.439 271.995 111.235C271.995 103.031 265.352 96.3804 257.159 96.3804C248.965 96.3804 242.322 103.031 242.322 111.235C242.322 119.439 248.965 126.089 257.159 126.089Z" fill="#B0B8B4"/>
<path d="M266.499 98.171C265.663 98.0475 264.858 97.765 264.128 97.3387C263.766 97.1199 263.473 96.8035 263.282 96.4258C263.091 96.0481 263.01 95.6242 263.048 95.2026C263.231 94.1472 264.423 93.517 265.491 93.5812C266.554 93.7346 267.565 94.144 268.435 94.7741C268.34 93.7541 267.904 92.7959 267.199 92.0534C266.494 91.3108 265.561 90.827 264.548 90.6797C265.953 90.604 267.413 90.5371 268.712 91.078C270.01 91.6189 271.093 92.9582 270.859 94.3469C273.042 94.0653 275.196 95.5886 276.097 97.5997C276.999 99.6108 276.82 101.972 276.1 104.056C276.029 104.375 275.89 104.675 275.693 104.935C275.496 105.196 275.245 105.411 274.958 105.566C274.223 105.845 273.432 105.377 272.796 104.916C269.469 102.504 266.442 99.7049 263.777 96.5765" fill="#2F2E41"/>
<path d="M272.968 127.027C272.339 127.324 272.666 128.427 272.178 128.921C271.966 129.13 271.71 129.289 271.429 129.387C271.355 128.467 271.141 127.563 270.794 126.707C270.73 126.552 270.625 126.378 270.46 126.392C270.268 126.415 270.218 126.666 270.213 126.854C270.175 127.784 269.969 128.699 269.606 129.556C269.601 129.566 269.597 129.579 269.592 129.588C269.451 129.584 269.305 129.579 269.167 129.575C268.108 129.534 265.76 126.808 265.239 127.732C267.075 124.471 269.314 119.568 269.656 115.841C269.775 115.061 269.717 114.263 269.487 113.508C269.367 113.133 269.142 112.8 268.838 112.548C268.535 112.297 268.165 112.138 267.774 112.091C267.581 112.082 267.389 112.116 267.211 112.19C267.032 112.265 266.873 112.377 266.743 112.521C266.614 112.664 266.517 112.834 266.461 113.019C266.405 113.204 266.39 113.399 266.418 113.591L266.153 113.554C263.695 111.551 265.815 108.071 262.955 106.694C261.987 106.228 256.058 107.787 255.012 107.513C254.99 106.41 254.765 105.32 254.35 104.298C254.286 104.142 254.181 103.968 254.016 103.982C253.824 104.005 253.774 104.257 253.77 104.444C253.731 105.374 253.525 106.29 253.162 107.147C251.713 106.941 250.238 107.019 248.818 107.376C247.566 107.705 246.379 108.272 245.123 108.574C244.502 108.764 243.849 108.826 243.203 108.755C242.557 108.685 241.933 108.483 241.368 108.162C239.774 107.092 239.495 104.723 240.29 102.976C240.865 101.855 241.643 100.85 242.583 100.012C243.3 99.3173 244.045 98.6495 244.789 97.9819C245.456 97.3827 246.123 96.7836 246.79 96.1845C247.629 95.3934 248.524 94.6629 249.467 93.9984C250.972 93.0106 252.663 92.3413 254.436 92.0314C256.208 91.7215 258.026 91.7777 259.776 92.1965C261.877 92.6996 264.686 91.9907 266.61 92.974C267.614 93.4908 269.839 95.4711 270.721 96.1754C272.977 97.9727 271.45 96.5082 273.918 97.5474C279.803 100.025 277.201 125.032 272.968 127.027Z" fill="#2F2E41"/>
<path d="M108.697 235.448C159.512 235.448 200.706 194.204 200.706 143.327C200.706 92.4496 159.512 51.2056 108.697 51.2056C57.8826 51.2056 16.689 92.4496 16.689 143.327C16.689 194.204 57.8826 235.448 108.697 235.448Z" fill="white"/>
<path d="M108.697 236.367C57.4575 236.367 15.7707 194.629 15.7707 143.327C15.7707 92.0239 57.4576 50.2859 108.697 50.2859C159.937 50.2859 201.624 92.0239 201.624 143.327C201.624 194.629 159.937 236.367 108.697 236.367ZM108.697 52.125C58.4704 52.125 17.6075 93.038 17.6075 143.327C17.6075 193.615 58.4704 234.528 108.697 234.528C158.925 234.528 199.787 193.615 199.787 143.327C199.787 93.038 158.924 52.125 108.697 52.125Z" fill="#243441"/>
<path d="M96.1456 191.272C94.5567 191.272 92.9897 190.901 91.5687 190.19C90.1476 189.478 88.9117 188.445 87.9587 187.172L62.8574 153.662C62.051 152.585 61.4643 151.36 61.1308 150.057C60.7973 148.753 60.7235 147.397 60.9136 146.064C61.1037 144.732 61.554 143.451 62.2388 142.293C62.9236 141.135 63.8295 140.124 64.9047 139.316C65.98 138.509 67.2035 137.921 68.5055 137.588C69.8074 137.254 71.1623 137.18 72.4928 137.37C73.8233 137.56 75.1033 138.011 76.2598 138.697C77.4162 139.383 78.4265 140.29 79.2329 141.366L95.655 163.287L137.833 99.9435C139.34 97.684 141.681 96.1159 144.341 95.5839C147.002 95.052 149.765 95.5996 152.023 97.1066C154.28 98.6135 155.848 100.956 156.381 103.62C156.914 106.284 156.369 109.051 154.865 111.312L104.662 186.708C103.754 188.072 102.533 189.198 101.1 189.991C99.6681 190.784 98.0667 191.222 96.4304 191.268C96.3355 191.27 96.2405 191.272 96.1456 191.272Z" fill="#243441"/>
<path d="M203.493 56.9612C203.749 55.2 201.906 53.4736 199.378 53.1053C196.849 52.7369 194.592 53.866 194.336 55.6273C194.08 57.3885 195.922 59.1149 198.451 59.4833C200.98 59.8516 203.237 58.7225 203.493 56.9612Z" fill="#E6E6E6"/>
<path d="M233.599 54.02C233.855 52.2588 232.013 50.5325 229.484 50.1641C226.955 49.7957 224.698 50.9249 224.442 52.6861C224.186 54.4473 226.029 56.1737 228.557 56.542C231.086 56.9104 233.343 55.7813 233.599 54.02Z" fill="#3F3D56"/>
<path d="M195.249 32.5579C195.505 30.7966 193.662 29.0703 191.133 28.7019C188.605 28.3335 186.347 29.4627 186.091 31.2239C185.836 32.9851 187.678 34.7115 190.207 35.0799C192.735 35.4482 194.993 34.3191 195.249 32.5579Z" fill="#FF6584"/>
<path d="M182.167 22.5617C182.179 20.9448 181.278 19.6272 180.155 19.6187C179.031 19.6102 178.111 20.914 178.099 22.5309C178.086 24.1478 178.987 25.4654 180.111 25.4739C181.234 25.4824 182.155 24.1786 182.167 22.5617Z" fill="#E6E6E6"/>
<path d="M177.73 3.94308C177.743 2.3262 176.842 1.00856 175.718 1.00005C174.595 0.991545 173.674 2.2954 173.662 3.91228C173.65 5.52916 174.551 6.8468 175.674 6.85531C176.798 6.86381 177.718 5.55996 177.73 3.94308Z" fill="#3F3D56"/>
<path d="M212.229 36.7106C212.241 35.0937 211.341 33.7761 210.217 33.7676C209.094 33.7591 208.173 35.0629 208.161 36.6798C208.149 38.2967 209.05 39.6143 210.173 39.6228C211.296 39.6313 212.217 38.3275 212.229 36.7106Z" fill="#E6E6E6"/>
<path d="M197.68 43.9836C197.693 42.3667 196.792 41.0491 195.668 41.0406C194.545 41.0321 193.624 42.3359 193.612 43.9528C193.6 45.5697 194.501 46.8873 195.624 46.8958C196.748 46.9043 197.668 45.6005 197.68 43.9836Z" fill="#FF6584"/>
<path d="M217.933 57.4259C217.945 55.809 217.044 54.4914 215.921 54.4829C214.797 54.4744 213.877 55.7782 213.865 57.3951C213.852 59.012 214.753 60.3296 215.877 60.3381C217 60.3466 217.921 59.0428 217.933 57.4259Z" fill="#3F3D56"/>
<path d="M30.8309 275.199C31.0868 273.438 29.2444 271.712 26.7157 271.343C24.1871 270.975 21.9297 272.104 21.6738 273.865C21.4178 275.627 23.2602 277.353 25.7889 277.721C28.3176 278.09 30.575 276.961 30.8309 275.199Z" fill="#E6E6E6"/>
<path d="M60.9375 272.258C61.1934 270.497 59.351 268.77 56.8223 268.402C54.2937 268.034 52.0363 269.163 51.7804 270.924C51.5244 272.685 53.3668 274.412 55.8955 274.78C58.4242 275.148 60.6815 274.019 60.9375 272.258Z" fill="#3F3D56"/>
<path d="M22.5868 250.796C22.8428 249.035 21.0004 247.308 18.4717 246.94C15.943 246.571 13.6856 247.701 13.4297 249.462C13.1738 251.223 15.0162 252.949 17.5448 253.318C20.0735 253.686 22.3309 252.557 22.5868 250.796Z" fill="#FF6584"/>
<path d="M9.50474 240.8C9.51695 239.183 8.61615 237.865 7.49275 237.857C6.36934 237.848 5.44872 239.152 5.43651 240.769C5.4243 242.386 6.32512 243.703 7.44852 243.712C8.57193 243.721 9.49253 242.417 9.50474 240.8Z" fill="#E6E6E6"/>
<path d="M5.06835 222.181C5.08056 220.564 4.17976 219.247 3.05636 219.238C1.93295 219.23 1.01235 220.533 1.00014 222.15C0.987927 223.767 1.88873 225.085 3.01213 225.093C4.13554 225.102 5.05614 223.798 5.06835 222.181Z" fill="#3F3D56"/>
<path d="M39.5672 254.949C39.5794 253.332 38.6786 252.014 37.5552 252.006C36.4318 251.997 35.5112 253.301 35.499 254.918C35.4868 256.535 36.3875 257.852 37.511 257.861C38.6344 257.869 39.555 256.566 39.5672 254.949Z" fill="#E6E6E6"/>
<path d="M25.0184 262.222C25.0306 260.605 24.1298 259.287 23.0064 259.279C21.883 259.27 20.9624 260.574 20.9502 262.191C20.9379 263.808 21.8388 265.125 22.9622 265.134C24.0856 265.142 25.0062 263.838 25.0184 262.222Z" fill="#FF6584"/>
<path d="M45.2708 275.664C45.283 274.047 44.3822 272.729 43.2588 272.721C42.1354 272.712 41.2148 274.016 41.2026 275.633C41.1904 277.25 42.0912 278.568 43.2146 278.576C44.338 278.585 45.2586 277.281 45.2708 275.664Z" fill="#3F3D56"/>
</svg>
