<svg width="335" height="133" viewBox="0 0 335 133" fill="none" xmlns="http://www.w3.org/2000/svg">
<path d="M9.46875 58L36.8229 82.375L91.5313 33.625M91.5313 82.375L36.8229 33.625L91.5313 82.375Z" stroke="white" stroke-linecap="round" stroke-linejoin="round"/>
<path d="M123.5 26.9V24.85H144.5V26.9H135.15V53H132.9V26.9H123.5ZM152.113 53.5C148.946 53.5 146.563 52.5333 144.963 50.6C143.396 48.6333 142.613 46.15 142.613 43.15C142.613 40.0833 143.413 37.5833 145.013 35.65C146.613 33.6833 148.98 32.7 152.113 32.7C155.18 32.7 157.513 33.6667 159.113 35.6C160.746 37.5 161.563 40.0167 161.563 43.15C161.563 45.1167 161.213 46.8833 160.513 48.45C159.846 49.9833 158.813 51.2167 157.413 52.15C156.046 53.05 154.28 53.5 152.113 53.5ZM152.113 51.45C153.98 51.45 155.43 51.0333 156.463 50.2C157.496 49.3667 158.213 48.3167 158.613 47.05C159.046 45.75 159.263 44.4333 159.263 43.1C159.263 41.7333 159.046 40.4167 158.613 39.15C158.213 37.85 157.496 36.7833 156.463 35.95C155.43 35.0833 153.98 34.65 152.113 34.65C150.246 34.65 148.796 35.0833 147.763 35.95C146.73 36.7833 145.996 37.85 145.563 39.15C145.13 40.4167 144.913 41.7333 144.913 43.1C144.913 44.4333 145.13 45.75 145.563 47.05C145.996 48.3167 146.73 49.3667 147.763 50.2C148.796 51.0333 150.246 51.45 152.113 51.45ZM175.173 53.5C173.239 53.5 171.589 53.05 170.223 52.15C168.889 51.2167 167.873 49.9667 167.173 48.4C166.473 46.8 166.123 45.0333 166.123 43.1C166.123 41.1333 166.473 39.3667 167.173 37.8C167.906 36.2333 168.939 35 170.273 34.1C171.639 33.1667 173.289 32.7 175.223 32.7C176.623 32.7 177.789 32.95 178.723 33.45C179.656 33.9167 180.406 34.4833 180.973 35.15C181.573 35.7833 182.023 36.4 182.323 37C182.623 37.5667 182.806 37.9667 182.873 38.2H182.973L183.023 24.85H185.323V53H183.423L183.023 48.05H182.923C182.823 48.2833 182.606 48.6833 182.273 49.25C181.973 49.8167 181.523 50.4333 180.923 51.1C180.323 51.7667 179.539 52.3333 178.573 52.8C177.639 53.2667 176.506 53.5 175.173 53.5ZM175.473 51.35C177.539 51.35 179.289 50.6333 180.723 49.2C182.156 47.7667 182.873 45.7333 182.873 43.1C182.873 40.5333 182.189 38.5333 180.823 37.1C179.489 35.6333 177.823 34.9 175.823 34.9C174.156 34.9 172.773 35.3 171.673 36.1C170.573 36.8667 169.739 37.8833 169.173 39.15C168.639 40.3833 168.373 41.7 168.373 43.1C168.373 44.5 168.623 45.8333 169.123 47.1C169.623 48.3667 170.389 49.4 171.423 50.2C172.456 50.9667 173.806 51.35 175.473 51.35ZM198.5 53.5C195.333 53.5 192.95 52.5333 191.35 50.6C189.783 48.6333 189 46.15 189 43.15C189 40.0833 189.8 37.5833 191.4 35.65C193 33.6833 195.366 32.7 198.5 32.7C201.566 32.7 203.9 33.6667 205.5 35.6C207.133 37.5 207.95 40.0167 207.95 43.15C207.95 45.1167 207.6 46.8833 206.9 48.45C206.233 49.9833 205.2 51.2167 203.8 52.15C202.433 53.05 200.666 53.5 198.5 53.5ZM198.5 51.45C200.366 51.45 201.816 51.0333 202.85 50.2C203.883 49.3667 204.6 48.3167 205 47.05C205.433 45.75 205.65 44.4333 205.65 43.1C205.65 41.7333 205.433 40.4167 205 39.15C204.6 37.85 203.883 36.7833 202.85 35.95C201.816 35.0833 200.366 34.65 198.5 34.65C196.633 34.65 195.183 35.0833 194.15 35.95C193.116 36.7833 192.383 37.85 191.95 39.15C191.516 40.4167 191.3 41.7333 191.3 43.1C191.3 44.4333 191.516 45.75 191.95 47.05C192.383 48.3167 193.116 49.3667 194.15 50.2C195.183 51.0333 196.633 51.45 198.5 51.45ZM219.809 53.5C218.109 53.5 216.726 53.2167 215.659 52.65C214.593 52.05 213.776 51.35 213.209 50.55C212.643 49.75 212.243 48.9833 212.009 48.25C211.809 47.5167 211.709 46.9833 211.709 46.65H213.959C213.959 46.6833 213.976 46.9667 214.009 47.5C214.076 48 214.276 48.5833 214.609 49.25C214.943 49.9167 215.509 50.5 216.309 51C217.143 51.4667 218.326 51.7 219.859 51.7C220.926 51.7 221.926 51.5833 222.859 51.35C223.826 51.0833 224.593 50.6833 225.159 50.15C225.759 49.5833 226.059 48.85 226.059 47.95C226.026 46.8833 225.676 46.0667 225.009 45.5C224.343 44.9 223.476 44.45 222.409 44.15C221.343 43.85 220.226 43.5833 219.059 43.35C217.893 43.1167 216.776 42.8 215.709 42.4C214.676 42 213.826 41.4167 213.159 40.65C212.526 39.8833 212.226 38.8333 212.259 37.5C212.259 35.9333 212.993 34.65 214.459 33.65C215.926 32.65 217.809 32.15 220.109 32.15C220.976 32.15 221.876 32.25 222.809 32.45C223.776 32.65 224.676 33 225.509 33.5C226.343 34 227.009 34.7 227.509 35.6C228.009 36.4667 228.226 37.5833 228.159 38.95H225.959C226.026 37.9167 225.859 37.0833 225.459 36.45C225.059 35.7833 224.526 35.2833 223.859 34.95C223.226 34.6167 222.559 34.4 221.859 34.3C221.159 34.1667 220.526 34.1 219.959 34.1C218.393 34.1 217.059 34.4 215.959 35C214.893 35.5667 214.359 36.4167 214.359 37.55C214.359 38.5833 214.693 39.3667 215.359 39.9C216.026 40.4 216.893 40.8 217.959 41.1C219.026 41.3667 220.143 41.6333 221.309 41.9C222.476 42.1333 223.576 42.4667 224.609 42.9C225.676 43.3 226.543 43.9 227.209 44.7C227.909 45.5 228.259 46.6167 228.259 48.05C228.259 49.3167 227.876 50.3667 227.109 51.2C226.343 52 225.309 52.5833 224.009 52.95C222.743 53.3167 221.343 53.5 219.809 53.5ZM271.938 53.05C270.672 52.5833 269.488 52.0333 268.388 51.4C267.322 50.7667 266.105 49.9833 264.738 49.05C263.505 50.4833 262.038 51.5667 260.338 52.3C258.638 53.0333 256.888 53.4167 255.088 53.45C253.288 53.5167 251.622 53.25 250.088 52.65C248.555 52.05 247.305 51.1333 246.338 49.9C245.372 48.6667 244.888 47.1167 244.888 45.25C244.888 43.7167 245.255 42.4333 245.988 41.4C246.722 40.3667 247.622 39.5167 248.688 38.85C249.755 38.15 250.772 37.5333 251.738 37C251.072 36.0667 250.422 35.0333 249.788 33.9C249.155 32.7333 248.838 31.5167 248.838 30.25C248.838 28.9833 249.155 27.9167 249.788 27.05C250.422 26.1833 251.255 25.5333 252.288 25.1C253.322 24.6667 254.405 24.45 255.538 24.45C256.705 24.4167 257.788 24.6 258.788 25C259.822 25.4 260.655 26.0167 261.288 26.85C261.955 27.65 262.288 28.65 262.288 29.85C262.288 30.9167 261.972 31.9 261.338 32.8C260.705 33.6667 259.938 34.4333 259.038 35.1C258.172 35.7333 257.338 36.2667 256.538 36.7C255.738 37.1 255.172 37.3833 254.838 37.55C255.438 38.35 256.255 39.2833 257.288 40.35C258.355 41.3833 259.488 42.4167 260.688 43.45C261.888 44.4833 263.038 45.3833 264.138 46.15C264.738 45.1833 265.222 44.05 265.588 42.75C265.988 41.4167 266.172 40.1333 266.138 38.9C266.105 37.6333 265.755 36.6 265.088 35.8L266.938 34.4C267.605 35.2667 268.022 36.4667 268.188 38C268.388 39.5333 268.305 41.15 267.938 42.85C267.605 44.55 266.972 46.0667 266.038 47.4C267.305 48.2667 268.438 49 269.438 49.6C270.438 50.2 271.555 50.7333 272.788 51.2L271.938 53.05ZM253.588 36.45C253.655 36.4167 254.022 36.25 254.688 35.95C255.388 35.6167 256.155 35.1833 256.988 34.65C257.855 34.0833 258.605 33.4167 259.238 32.65C259.905 31.8833 260.238 31.05 260.238 30.15C260.272 29.15 259.972 28.35 259.338 27.75C258.705 27.15 257.922 26.75 256.988 26.55C256.088 26.35 255.172 26.3667 254.238 26.6C253.305 26.8333 252.522 27.2833 251.888 27.95C251.255 28.5833 250.938 29.4333 250.938 30.5C250.938 32.1333 251.822 34.1167 253.588 36.45ZM262.938 47.8C261.772 46.9333 260.555 45.95 259.288 44.85C258.055 43.7167 256.872 42.5667 255.738 41.4C254.638 40.2333 253.705 39.15 252.938 38.15C251.405 38.9167 250.072 39.8333 248.938 40.9C247.805 41.9333 247.238 43.3 247.238 45C247.238 46.4667 247.622 47.6833 248.388 48.65C249.155 49.6167 250.155 50.3333 251.388 50.8C252.622 51.2333 253.938 51.4333 255.338 51.4C256.772 51.3333 258.155 51 259.488 50.4C260.822 49.8 261.972 48.9333 262.938 47.8Z" fill="white"/>
<path d="M139.41 84.45C137.1 84.45 135.015 83.955 133.155 82.965C131.325 81.975 129.87 80.52 128.79 78.6C127.74 76.65 127.215 74.235 127.215 71.355C127.245 68.445 127.77 66.015 128.79 64.065C129.84 62.115 131.295 60.66 133.155 59.7C135.015 58.71 137.16 58.215 139.59 58.215C142.53 58.215 144.99 59.01 146.97 60.6C148.98 62.19 150.255 64.47 150.795 67.44H148.68C148.23 65.04 147.18 63.225 145.53 61.995C143.88 60.735 141.9 60.105 139.59 60.105C136.41 60.105 133.89 61.065 132.03 62.985C130.2 64.905 129.285 67.665 129.285 71.265C129.285 74.985 130.185 77.805 131.985 79.725C133.815 81.615 136.29 82.56 139.41 82.56C141.96 82.56 144.06 81.93 145.71 80.67C147.36 79.41 148.395 77.61 148.815 75.27H151.02C150.45 78.18 149.175 80.445 147.195 82.065C145.215 83.655 142.62 84.45 139.41 84.45ZM160.91 84.405C159.23 84.405 157.835 83.985 156.725 83.145C155.615 82.305 154.79 81.18 154.25 79.77C153.71 78.33 153.44 76.74 153.44 75C153.44 73.2 153.71 71.595 154.25 70.185C154.82 68.745 155.66 67.62 156.77 66.81C157.88 65.97 159.26 65.55 160.91 65.55C162.68 65.55 164.09 65.985 165.14 66.855C166.19 67.695 166.94 68.67 167.39 69.78H167.48V65.73H169.55V84H167.84L167.48 80.22H167.39C166.91 81.33 166.145 82.305 165.095 83.145C164.045 83.985 162.65 84.405 160.91 84.405ZM161.675 82.515C163.595 82.515 165.035 81.855 165.995 80.535C166.955 79.215 167.435 77.385 167.435 75.045C167.435 72.555 166.925 70.68 165.905 69.42C164.915 68.16 163.505 67.53 161.675 67.53C159.545 67.53 157.985 68.25 156.995 69.69C156.005 71.1 155.51 72.87 155.51 75C155.51 77.22 156.02 79.035 157.04 80.445C158.06 81.825 159.605 82.515 161.675 82.515ZM173.649 84V58.665H175.719V84H173.649ZM188.019 84.45C185.439 84.45 183.339 83.64 181.719 82.02C180.099 80.4 179.289 78.165 179.289 75.315C179.319 73.425 179.709 71.76 180.459 70.32C181.209 68.88 182.244 67.755 183.564 66.945C184.884 66.135 186.414 65.73 188.154 65.73C190.374 65.73 192.204 66.345 193.644 67.575C195.114 68.775 196.014 70.29 196.344 72.12H194.409C194.109 70.71 193.389 69.615 192.249 68.835C191.139 68.025 189.789 67.62 188.199 67.62C186.129 67.62 184.464 68.325 183.204 69.735C181.944 71.145 181.314 72.975 181.314 75.225C181.314 77.475 181.914 79.26 183.114 80.58C184.344 81.9 185.994 82.56 188.064 82.56C189.684 82.56 191.064 82.155 192.204 81.345C193.374 80.535 194.109 79.425 194.409 78.015H196.344C196.014 79.875 195.099 81.42 193.599 82.65C192.099 83.85 190.239 84.45 188.019 84.45ZM206.844 84.45C204.924 84.45 203.454 84.015 202.434 83.145C201.414 82.275 200.709 81.15 200.319 79.77C199.959 78.36 199.779 76.86 199.779 75.27V65.73H201.804V75.27C201.804 76.65 201.939 77.895 202.209 79.005C202.509 80.085 203.049 80.955 203.829 81.615C204.639 82.245 205.809 82.56 207.339 82.56C208.779 82.56 209.919 82.23 210.759 81.57C211.629 80.88 212.274 80.01 212.694 78.96C213.114 77.88 213.354 76.74 213.414 75.54L213.459 65.73H215.529V84H213.819L213.459 79.635H213.369C213.189 80.265 212.829 80.955 212.289 81.705C211.749 82.455 211.029 83.1 210.129 83.64C209.259 84.18 208.164 84.45 206.844 84.45ZM220.231 84V58.665H222.301V84H220.231ZM232.936 84.405C231.256 84.405 229.861 83.985 228.751 83.145C227.641 82.305 226.816 81.18 226.276 79.77C225.736 78.33 225.466 76.74 225.466 75C225.466 73.2 225.736 71.595 226.276 70.185C226.846 68.745 227.686 67.62 228.796 66.81C229.906 65.97 231.286 65.55 232.936 65.55C234.706 65.55 236.116 65.985 237.166 66.855C238.216 67.695 238.966 68.67 239.416 69.78H239.506V65.73H241.576V84H239.866L239.506 80.22H239.416C238.936 81.33 238.171 82.305 237.121 83.145C236.071 83.985 234.676 84.405 232.936 84.405ZM233.701 82.515C235.621 82.515 237.061 81.855 238.021 80.535C238.981 79.215 239.461 77.385 239.461 75.045C239.461 72.555 238.951 70.68 237.931 69.42C236.941 68.16 235.531 67.53 233.701 67.53C231.571 67.53 230.011 68.25 229.021 69.69C228.031 71.1 227.536 72.87 227.536 75C227.536 77.22 228.046 79.035 229.066 80.445C230.086 81.825 231.631 82.515 233.701 82.515ZM248.915 84C247.955 84 247.34 83.73 247.07 83.19C246.8 82.65 246.665 82.005 246.665 81.255V67.395H243.65V65.73C244.73 65.73 245.48 65.67 245.9 65.55C246.32 65.4 246.575 64.995 246.665 64.335C246.755 63.675 246.8 62.565 246.8 61.005H248.645V65.73H252.92V67.395H248.645V82.245H252.92V84H248.915ZM264.13 84.45C261.28 84.45 259.135 83.58 257.695 81.84C256.285 80.07 255.58 77.835 255.58 75.135C255.58 72.375 256.3 70.125 257.74 68.385C259.18 66.615 261.31 65.73 264.13 65.73C266.89 65.73 268.99 66.6 270.43 68.34C271.9 70.05 272.635 72.315 272.635 75.135C272.635 76.905 272.32 78.495 271.69 79.905C271.09 81.285 270.16 82.395 268.9 83.235C267.67 84.045 266.08 84.45 264.13 84.45ZM264.13 82.605C265.81 82.605 267.115 82.23 268.045 81.48C268.975 80.73 269.62 79.785 269.98 78.645C270.37 77.475 270.565 76.29 270.565 75.09C270.565 73.86 270.37 72.675 269.98 71.535C269.62 70.365 268.975 69.405 268.045 68.655C267.115 67.875 265.81 67.485 264.13 67.485C262.45 67.485 261.145 67.875 260.215 68.655C259.285 69.405 258.625 70.365 258.235 71.535C257.845 72.675 257.65 73.86 257.65 75.09C257.65 76.29 257.845 77.475 258.235 78.645C258.625 79.785 259.285 80.73 260.215 81.48C261.145 82.23 262.45 82.605 264.13 82.605ZM276.919 84V65.73H278.674L278.944 70.41C279.244 69.12 279.949 68.01 281.059 67.08C282.169 66.15 283.729 65.7 285.739 65.73H286.729V68.025H285.739C283.699 68.025 282.199 68.355 281.239 69.015C280.279 69.645 279.649 70.5 279.349 71.58C279.079 72.66 278.944 73.86 278.944 75.18V84H276.919Z" fill="white"/>
<path d="M129.08 99.14C128.277 99.14 127.624 98.888 127.12 98.384C126.616 97.88 126.364 97.1847 126.364 96.298C126.373 95.71 126.495 95.192 126.728 94.744C126.961 94.296 127.283 93.946 127.694 93.694C128.105 93.442 128.581 93.316 129.122 93.316C129.813 93.316 130.382 93.5073 130.83 93.89C131.287 94.2633 131.567 94.7347 131.67 95.304H131.068C130.975 94.8653 130.751 94.5247 130.396 94.282C130.051 94.03 129.631 93.904 129.136 93.904C128.492 93.904 127.974 94.1233 127.582 94.562C127.19 95.0007 126.994 95.57 126.994 96.27C126.994 96.97 127.181 97.5253 127.554 97.936C127.937 98.3467 128.45 98.552 129.094 98.552C129.598 98.552 130.027 98.426 130.382 98.174C130.746 97.922 130.975 97.5767 131.068 97.138H131.67C131.567 97.7167 131.283 98.1973 130.816 98.58C130.349 98.9533 129.771 99.14 129.08 99.14ZM132.949 99V93.316H133.495L133.579 94.772C133.672 94.3707 133.891 94.0253 134.237 93.736C134.582 93.4467 135.067 93.3067 135.693 93.316H136.001V94.03H135.693C135.058 94.03 134.591 94.1327 134.293 94.338C133.994 94.534 133.798 94.8 133.705 95.136C133.621 95.472 133.579 95.8453 133.579 96.256V99H132.949ZM139.17 99.14C138.563 99.14 138.059 98.9953 137.658 98.706C137.266 98.4167 136.972 98.048 136.776 97.6C136.58 97.1427 136.487 96.6713 136.496 96.186C136.496 95.682 136.599 95.2107 136.804 94.772C137.009 94.3333 137.308 93.9833 137.7 93.722C138.101 93.4513 138.587 93.316 139.156 93.316C139.865 93.316 140.449 93.5493 140.906 94.016C141.373 94.4733 141.634 95.0893 141.69 95.864C141.699 95.9107 141.704 95.9667 141.704 96.032C141.704 96.0973 141.704 96.158 141.704 96.214H137.112C137.112 96.9327 137.289 97.5067 137.644 97.936C137.999 98.3653 138.507 98.58 139.17 98.58C139.646 98.58 140.057 98.454 140.402 98.202C140.757 97.95 140.976 97.6093 141.06 97.18H141.69C141.578 97.7587 141.293 98.23 140.836 98.594C140.388 98.958 139.833 99.14 139.17 99.14ZM137.154 95.794H141.046C141.037 95.5513 140.967 95.2807 140.836 94.982C140.715 94.6833 140.514 94.422 140.234 94.198C139.963 93.974 139.604 93.862 139.156 93.862C138.54 93.862 138.069 94.0533 137.742 94.436C137.415 94.8187 137.219 95.2713 137.154 95.794ZM144.886 99.126C144.364 99.126 143.93 98.9953 143.584 98.734C143.239 98.4727 142.982 98.1227 142.814 97.684C142.646 97.236 142.562 96.7413 142.562 96.2C142.562 95.64 142.646 95.1407 142.814 94.702C142.992 94.254 143.253 93.904 143.598 93.652C143.944 93.3907 144.373 93.26 144.886 93.26C145.437 93.26 145.876 93.3953 146.202 93.666C146.529 93.9273 146.762 94.2307 146.902 94.576H146.93V93.316H147.574V99H147.042L146.93 97.824H146.902C146.753 98.1693 146.515 98.4727 146.188 98.734C145.862 98.9953 145.428 99.126 144.886 99.126ZM145.124 98.538C145.722 98.538 146.17 98.3327 146.468 97.922C146.767 97.5113 146.916 96.942 146.916 96.214C146.916 95.4393 146.758 94.856 146.44 94.464C146.132 94.072 145.694 93.876 145.124 93.876C144.462 93.876 143.976 94.1 143.668 94.548C143.36 94.9867 143.206 95.5373 143.206 96.2C143.206 96.8907 143.365 97.4553 143.682 97.894C144 98.3233 144.48 98.538 145.124 98.538ZM149.857 99C149.559 99 149.367 98.916 149.283 98.748C149.199 98.58 149.157 98.3793 149.157 98.146V93.834H148.219V93.316C148.555 93.316 148.789 93.2973 148.919 93.26C149.05 93.2133 149.129 93.0873 149.157 92.882C149.185 92.6767 149.199 92.3313 149.199 91.846H149.773V93.316H151.103V93.834H149.773V98.454H151.103V99H149.857ZM154.619 99.14C154.012 99.14 153.508 98.9953 153.107 98.706C152.715 98.4167 152.421 98.048 152.225 97.6C152.029 97.1427 151.936 96.6713 151.945 96.186C151.945 95.682 152.048 95.2107 152.253 94.772C152.458 94.3333 152.757 93.9833 153.149 93.722C153.55 93.4513 154.036 93.316 154.605 93.316C155.314 93.316 155.898 93.5493 156.355 94.016C156.822 94.4733 157.083 95.0893 157.139 95.864C157.148 95.9107 157.153 95.9667 157.153 96.032C157.153 96.0973 157.153 96.158 157.153 96.214H152.561C152.561 96.9327 152.738 97.5067 153.093 97.936C153.448 98.3653 153.956 98.58 154.619 98.58C155.095 98.58 155.506 98.454 155.851 98.202C156.206 97.95 156.425 97.6093 156.509 97.18H157.139C157.027 97.7587 156.742 98.23 156.285 98.594C155.837 98.958 155.282 99.14 154.619 99.14ZM152.603 95.794H156.495C156.486 95.5513 156.416 95.2807 156.285 94.982C156.164 94.6833 155.963 94.422 155.683 94.198C155.412 93.974 155.053 93.862 154.605 93.862C153.989 93.862 153.518 94.0533 153.191 94.436C152.864 94.8187 152.668 95.2713 152.603 95.794ZM160.979 99.14C160.438 99.14 159.976 99.014 159.593 98.762C159.22 98.5007 158.935 98.1507 158.739 97.712C158.543 97.264 158.445 96.7693 158.445 96.228C158.445 95.6773 158.543 95.1827 158.739 94.744C158.945 94.3053 159.234 93.96 159.607 93.708C159.99 93.4467 160.452 93.316 160.993 93.316C161.385 93.316 161.712 93.386 161.973 93.526C162.235 93.6567 162.445 93.8153 162.603 94.002C162.771 94.1793 162.897 94.352 162.981 94.52C163.065 94.6787 163.117 94.7907 163.135 94.856H163.163L163.177 91.118H163.821V99H163.289L163.177 97.614H163.149C163.121 97.6793 163.061 97.7913 162.967 97.95C162.883 98.1087 162.757 98.2813 162.589 98.468C162.421 98.6547 162.202 98.8133 161.931 98.944C161.67 99.0747 161.353 99.14 160.979 99.14ZM161.063 98.538C161.642 98.538 162.132 98.3373 162.533 97.936C162.935 97.5347 163.135 96.9653 163.135 96.228C163.135 95.5093 162.944 94.9493 162.561 94.548C162.188 94.1373 161.721 93.932 161.161 93.932C160.695 93.932 160.307 94.044 159.999 94.268C159.691 94.4827 159.458 94.7673 159.299 95.122C159.15 95.4673 159.075 95.836 159.075 96.228C159.075 96.62 159.145 96.9933 159.285 97.348C159.425 97.7027 159.64 97.992 159.929 98.216C160.219 98.4307 160.597 98.538 161.063 98.538ZM171.418 99.14C171.045 99.14 170.723 99.0747 170.452 98.944C170.191 98.8133 169.976 98.6547 169.808 98.468C169.64 98.2813 169.51 98.1087 169.416 97.95C169.332 97.7913 169.281 97.6793 169.262 97.614H169.234L169.122 99H168.576V91.118H169.234L169.248 94.856H169.276C169.295 94.7907 169.342 94.6787 169.416 94.52C169.5 94.352 169.622 94.1793 169.78 94.002C169.948 93.8153 170.163 93.6567 170.424 93.526C170.695 93.386 171.026 93.316 171.418 93.316C171.96 93.316 172.417 93.4467 172.79 93.708C173.173 93.9693 173.462 94.3193 173.658 94.758C173.864 95.1967 173.966 95.6867 173.966 96.228C173.966 96.7787 173.864 97.2733 173.658 97.712C173.462 98.1507 173.173 98.5007 172.79 98.762C172.417 99.014 171.96 99.14 171.418 99.14ZM171.334 98.538C171.801 98.538 172.179 98.4307 172.468 98.216C172.767 97.992 172.982 97.7027 173.112 97.348C173.252 96.9933 173.322 96.62 173.322 96.228C173.322 95.836 173.248 95.4673 173.098 95.122C172.949 94.7673 172.72 94.4827 172.412 94.268C172.104 94.044 171.717 93.932 171.25 93.932C170.681 93.932 170.205 94.1373 169.822 94.548C169.449 94.9493 169.262 95.5093 169.262 96.228C169.262 96.9653 169.463 97.5347 169.864 97.936C170.275 98.3373 170.765 98.538 171.334 98.538ZM174.37 101.492V100.96H175.098C175.284 100.96 175.434 100.904 175.546 100.792C175.658 100.68 175.802 100.442 175.98 100.078L176.68 98.552L174.454 93.316H175.126L177.016 97.852L179.018 93.316H179.704L176.54 100.19C176.372 100.563 176.222 100.843 176.092 101.03C175.961 101.217 175.821 101.338 175.672 101.394C175.522 101.459 175.34 101.492 175.126 101.492H174.37ZM186.476 99.14C185.692 99.14 185.062 98.93 184.586 98.51C184.11 98.0807 183.872 97.446 183.872 96.606H185.216C185.216 96.8207 185.249 97.026 185.314 97.222C185.389 97.418 185.515 97.5813 185.692 97.712C185.869 97.8427 186.117 97.908 186.434 97.908C186.845 97.908 187.143 97.7913 187.33 97.558C187.526 97.3153 187.624 96.886 187.624 96.27V92.224H186.028V91.118H189.052V96.046C189.052 96.6807 188.982 97.2313 188.842 97.698C188.711 98.1647 188.459 98.524 188.086 98.776C187.713 99.0187 187.176 99.14 186.476 99.14ZM191.386 92.616C191.078 92.6253 190.873 92.5553 190.77 92.406C190.677 92.2473 190.63 92.0607 190.63 91.846C190.63 91.6407 190.681 91.4633 190.784 91.314C190.887 91.1647 191.087 91.09 191.386 91.09C191.675 91.09 191.867 91.1647 191.96 91.314C192.063 91.4633 192.114 91.6407 192.114 91.846C192.114 92.0607 192.063 92.2427 191.96 92.392C191.867 92.532 191.675 92.6067 191.386 92.616ZM190.658 99V93.246H192.086V99H190.658ZM193.332 99V93.246H194.578L194.592 94.492H194.62C194.63 94.4547 194.667 94.3753 194.732 94.254C194.798 94.1233 194.896 93.9833 195.026 93.834C195.157 93.6753 195.33 93.54 195.544 93.428C195.759 93.3067 196.025 93.246 196.342 93.246C196.809 93.246 197.159 93.372 197.392 93.624C197.626 93.8667 197.794 94.156 197.896 94.492H197.924C197.934 94.4547 197.971 94.3753 198.036 94.254C198.111 94.1233 198.218 93.9833 198.358 93.834C198.508 93.6753 198.694 93.54 198.918 93.428C199.142 93.3067 199.418 93.246 199.744 93.246C200.108 93.246 200.402 93.3253 200.626 93.484C200.85 93.6333 201.023 93.8293 201.144 94.072C201.275 94.3053 201.364 94.5573 201.41 94.828C201.466 95.0987 201.494 95.36 201.494 95.612C201.504 95.8547 201.508 96.0553 201.508 96.214V99H200.304V96.2C200.304 96.06 200.3 95.8967 200.29 95.71C200.281 95.514 200.244 95.3273 200.178 95.15C200.113 94.9633 200.006 94.8093 199.856 94.688C199.707 94.5667 199.502 94.506 199.24 94.506C198.914 94.506 198.666 94.5947 198.498 94.772C198.33 94.94 198.214 95.1593 198.148 95.43C198.083 95.6913 198.05 95.9667 198.05 96.256V99H196.846V96.2C196.846 96.06 196.842 95.8967 196.832 95.71C196.823 95.514 196.786 95.3273 196.72 95.15C196.655 94.9633 196.548 94.8093 196.398 94.688C196.249 94.5667 196.044 94.506 195.782 94.506C195.456 94.506 195.208 94.5947 195.04 94.772C194.872 94.94 194.756 95.1593 194.69 95.43C194.625 95.6913 194.592 95.9667 194.592 96.256V99H193.332ZM202.575 99V93.246H203.821L203.835 94.492H203.863C203.872 94.4547 203.909 94.3753 203.975 94.254C204.04 94.1233 204.138 93.9833 204.269 93.834C204.399 93.6753 204.572 93.54 204.787 93.428C205.001 93.3067 205.267 93.246 205.585 93.246C206.051 93.246 206.401 93.372 206.635 93.624C206.868 93.8667 207.036 94.156 207.139 94.492H207.167C207.176 94.4547 207.213 94.3753 207.279 94.254C207.353 94.1233 207.461 93.9833 207.601 93.834C207.75 93.6753 207.937 93.54 208.161 93.428C208.385 93.3067 208.66 93.246 208.987 93.246C209.351 93.246 209.645 93.3253 209.869 93.484C210.093 93.6333 210.265 93.8293 210.387 94.072C210.517 94.3053 210.606 94.5573 210.653 94.828C210.709 95.0987 210.737 95.36 210.737 95.612C210.746 95.8547 210.751 96.0553 210.751 96.214V99H209.547V96.2C209.547 96.06 209.542 95.8967 209.533 95.71C209.523 95.514 209.486 95.3273 209.421 95.15C209.355 94.9633 209.248 94.8093 209.099 94.688C208.949 94.5667 208.744 94.506 208.483 94.506C208.156 94.506 207.909 94.5947 207.741 94.772C207.573 94.94 207.456 95.1593 207.391 95.43C207.325 95.6913 207.293 95.9667 207.293 96.256V99H206.089V96.2C206.089 96.06 206.084 95.8967 206.075 95.71C206.065 95.514 206.028 95.3273 205.963 95.15C205.897 94.9633 205.79 94.8093 205.641 94.688C205.491 94.5667 205.286 94.506 205.025 94.506C204.698 94.506 204.451 94.5947 204.283 94.772C204.115 94.94 203.998 95.1593 203.933 95.43C203.867 95.6913 203.835 95.9667 203.835 96.256V99H202.575ZM211.271 101.674V100.568H212.153C212.293 100.568 212.414 100.554 212.517 100.526C212.619 100.498 212.722 100.423 212.825 100.302C212.927 100.19 213.044 100.003 213.175 99.742L213.553 98.902L211.313 93.246H212.783L214.253 97.432L215.835 93.246H217.305L214.477 99.882C214.253 100.405 214.047 100.792 213.861 101.044C213.674 101.305 213.464 101.473 213.231 101.548C213.007 101.632 212.717 101.674 212.363 101.674H211.271ZM222.753 99H221.325V91.118H224.489C225.367 91.118 226.048 91.3373 226.533 91.776C227.019 92.2147 227.261 92.8773 227.261 93.764C227.261 94.5387 227.009 95.1453 226.505 95.584C226.011 96.0227 225.339 96.242 224.489 96.242H222.753V99ZM224.293 92.28H222.753V95.192H224.293C224.797 95.192 225.203 95.0707 225.511 94.828C225.819 94.5853 225.973 94.2213 225.973 93.736C225.973 93.2413 225.819 92.8773 225.511 92.644C225.213 92.4013 224.807 92.28 224.293 92.28ZM229.992 99.14C229.199 99.14 228.634 98.8693 228.298 98.328C227.962 97.7867 227.794 97.0773 227.794 96.2C227.794 95.3133 227.962 94.5993 228.298 94.058C228.643 93.5073 229.208 93.232 229.992 93.232C230.44 93.232 230.795 93.3113 231.056 93.47C231.317 93.6193 231.513 93.7873 231.644 93.974C231.775 94.1607 231.854 94.3007 231.882 94.394H231.91V93.246H233.38V99H232.148L231.91 98.062H231.882C231.854 98.146 231.77 98.2767 231.63 98.454C231.499 98.622 231.299 98.7807 231.028 98.93C230.767 99.07 230.421 99.14 229.992 99.14ZM230.58 97.936C231.103 97.936 231.453 97.7727 231.63 97.446C231.817 97.11 231.91 96.6993 231.91 96.214C231.91 95.7007 231.817 95.2853 231.63 94.968C231.443 94.6507 231.093 94.492 230.58 94.492C230.216 94.492 229.931 94.5713 229.726 94.73C229.53 94.8887 229.39 95.0987 229.306 95.36C229.231 95.612 229.194 95.8967 229.194 96.214C229.194 96.5313 229.231 96.8207 229.306 97.082C229.39 97.3433 229.53 97.5533 229.726 97.712C229.931 97.8613 230.216 97.936 230.58 97.936ZM234.362 99V93.274H235.58L235.818 94.492H235.846C235.855 94.464 235.888 94.3893 235.944 94.268C236.009 94.1373 236.112 93.9927 236.252 93.834C236.401 93.6753 236.597 93.54 236.84 93.428C237.092 93.3067 237.404 93.246 237.778 93.246C238.291 93.246 238.688 93.3487 238.968 93.554C239.248 93.7593 239.448 94.0207 239.57 94.338C239.691 94.646 239.766 94.968 239.794 95.304C239.822 95.64 239.836 95.9433 239.836 96.214V99H238.436V96.2C238.436 95.892 238.408 95.612 238.352 95.36C238.296 95.0987 238.174 94.8933 237.988 94.744C237.81 94.5853 237.544 94.506 237.19 94.506C236.816 94.506 236.532 94.59 236.336 94.758C236.14 94.926 236.004 95.1453 235.93 95.416C235.855 95.6773 235.818 95.9573 235.818 96.256V99H234.362ZM242.493 101.562V100.218H245.013V97.978H244.985C244.976 97.9967 244.934 98.0667 244.859 98.188C244.794 98.3093 244.687 98.4447 244.537 98.594C244.388 98.7433 244.192 98.874 243.949 98.986C243.716 99.0887 243.422 99.14 243.067 99.14C242.218 99.14 241.607 98.8693 241.233 98.328C240.86 97.7867 240.673 97.082 240.673 96.214C240.673 95.3087 240.86 94.59 241.233 94.058C241.616 93.5167 242.227 93.246 243.067 93.246C243.441 93.246 243.749 93.3067 243.991 93.428C244.234 93.54 244.425 93.6753 244.565 93.834C244.705 93.9927 244.803 94.1373 244.859 94.268C244.925 94.3987 244.962 94.478 244.971 94.506H244.999L245.013 93.246H246.483V99.49C246.483 100.255 246.329 100.792 246.021 101.1C245.723 101.408 245.256 101.562 244.621 101.562H242.493ZM243.515 97.936C244.038 97.936 244.416 97.7773 244.649 97.46C244.883 97.1333 244.999 96.718 244.999 96.214C244.999 95.7287 244.887 95.3273 244.663 95.01C244.439 94.6833 244.066 94.52 243.543 94.52C243.161 94.52 242.862 94.604 242.647 94.772C242.433 94.9307 242.279 95.1407 242.185 95.402C242.101 95.654 242.059 95.9247 242.059 96.214C242.059 96.5033 242.097 96.7833 242.171 97.054C242.255 97.3153 242.4 97.53 242.605 97.698C242.82 97.8567 243.123 97.936 243.515 97.936ZM249.502 99.14C248.708 99.14 248.144 98.8693 247.808 98.328C247.472 97.7867 247.304 97.0773 247.304 96.2C247.304 95.3133 247.472 94.5993 247.808 94.058C248.153 93.5073 248.718 93.232 249.502 93.232C249.95 93.232 250.304 93.3113 250.566 93.47C250.827 93.6193 251.023 93.7873 251.154 93.974C251.284 94.1607 251.364 94.3007 251.392 94.394H251.42V93.246H252.89V99H251.658L251.42 98.062H251.392C251.364 98.146 251.28 98.2767 251.14 98.454C251.009 98.622 250.808 98.7807 250.538 98.93C250.276 99.07 249.931 99.14 249.502 99.14ZM250.09 97.936C250.612 97.936 250.962 97.7727 251.14 97.446C251.326 97.11 251.42 96.6993 251.42 96.214C251.42 95.7007 251.326 95.2853 251.14 94.968C250.953 94.6507 250.603 94.492 250.09 94.492C249.726 94.492 249.441 94.5713 249.236 94.73C249.04 94.8887 248.9 95.0987 248.816 95.36C248.741 95.612 248.704 95.8967 248.704 96.214C248.704 96.5313 248.741 96.8207 248.816 97.082C248.9 97.3433 249.04 97.5533 249.236 97.712C249.441 97.8613 249.726 97.936 250.09 97.936ZM254.026 99V91.118H255.426V99H254.026ZM257.572 92.616C257.264 92.6253 257.058 92.5553 256.956 92.406C256.862 92.2473 256.816 92.0607 256.816 91.846C256.816 91.6407 256.867 91.4633 256.97 91.314C257.072 91.1647 257.273 91.09 257.572 91.09C257.861 91.09 258.052 91.1647 258.146 91.314C258.248 91.4633 258.3 91.6407 258.3 91.846C258.3 92.0607 258.248 92.2427 258.146 92.392C258.052 92.532 257.861 92.6067 257.572 92.616ZM256.844 99V93.246H258.272V99H256.844ZM259.518 99V93.274H260.736L260.974 94.492H261.002C261.011 94.464 261.044 94.3893 261.1 94.268C261.165 94.1373 261.268 93.9927 261.408 93.834C261.557 93.6753 261.753 93.54 261.996 93.428C262.248 93.3067 262.561 93.246 262.934 93.246C263.447 93.246 263.844 93.3487 264.124 93.554C264.404 93.7593 264.605 94.0207 264.726 94.338C264.847 94.646 264.922 94.968 264.95 95.304C264.978 95.64 264.992 95.9433 264.992 96.214V99H263.592V96.2C263.592 95.892 263.564 95.612 263.508 95.36C263.452 95.0987 263.331 94.8933 263.144 94.744C262.967 94.5853 262.701 94.506 262.346 94.506C261.973 94.506 261.688 94.59 261.492 94.758C261.296 94.926 261.161 95.1453 261.086 95.416C261.011 95.6773 260.974 95.9573 260.974 96.256V99H259.518ZM268.013 99.14C267.22 99.14 266.655 98.8693 266.319 98.328C265.983 97.7867 265.815 97.0773 265.815 96.2C265.815 95.3133 265.983 94.5993 266.319 94.058C266.665 93.5073 267.229 93.232 268.013 93.232C268.461 93.232 268.816 93.3113 269.077 93.47C269.339 93.6193 269.535 93.7873 269.665 93.974C269.796 94.1607 269.875 94.3007 269.903 94.394H269.931V93.246H271.401V99H270.169L269.931 98.062H269.903C269.875 98.146 269.791 98.2767 269.651 98.454C269.521 98.622 269.32 98.7807 269.049 98.93C268.788 99.07 268.443 99.14 268.013 99.14ZM268.601 97.936C269.124 97.936 269.474 97.7727 269.651 97.446C269.838 97.11 269.931 96.6993 269.931 96.214C269.931 95.7007 269.838 95.2853 269.651 94.968C269.465 94.6507 269.115 94.492 268.601 94.492C268.237 94.492 267.953 94.5713 267.747 94.73C267.551 94.8887 267.411 95.0987 267.327 95.36C267.253 95.612 267.215 95.8967 267.215 96.214C267.215 96.5313 267.253 96.8207 267.327 97.082C267.411 97.3433 267.551 97.5533 267.747 97.712C267.953 97.8613 268.237 97.936 268.601 97.936ZM272.383 99V93.274H273.601L273.839 94.492H273.867C273.877 94.464 273.909 94.3893 273.965 94.268C274.031 94.1373 274.133 93.9927 274.273 93.834C274.423 93.6753 274.619 93.54 274.861 93.428C275.113 93.3067 275.426 93.246 275.799 93.246C276.313 93.246 276.709 93.3487 276.989 93.554C277.269 93.7593 277.47 94.0207 277.591 94.338C277.713 94.646 277.787 94.968 277.815 95.304C277.843 95.64 277.857 95.9433 277.857 96.214V99H276.457V96.2C276.457 95.892 276.429 95.612 276.373 95.36C276.317 95.0987 276.196 94.8933 276.009 94.744C275.832 94.5853 275.566 94.506 275.211 94.506C274.838 94.506 274.553 94.59 274.357 94.758C274.161 94.926 274.026 95.1453 273.951 95.416C273.877 95.6773 273.839 95.9573 273.839 96.256V99H272.383Z" fill="white"/>
</svg>
